<svg width="210" height="80" viewBox="0 0 210 80" fill="none" xmlns="http://www.w3.org/2000/svg">
<path d="M111.012 39.3888H105.52C105.402 39.3885 105.286 39.4269 105.192 39.498C105.098 39.5691 105.03 39.669 104.998 39.7823C104.967 39.8956 104.974 40.0159 105.019 40.1246C105.064 40.2334 105.143 40.3245 105.246 40.384L106.893 41.344L104.428 49.984C104.351 50.2656 104.276 50.5376 104.208 50.8C104.177 50.9128 104.109 51.0123 104.015 51.0832C103.921 51.154 103.806 51.1924 103.688 51.1924C103.57 51.1924 103.455 51.154 103.361 51.0832C103.267 51.0123 103.2 50.9128 103.168 50.8C103.084 50.5248 102.99 50.2496 102.89 49.9712L99.2654 39.7312C99.228 39.6266 99.1589 39.536 99.0675 39.4718C98.9761 39.4077 98.867 39.3731 98.7549 39.3728H93.9088C93.7902 39.3725 93.6749 39.4109 93.5806 39.482C93.4862 39.5531 93.4182 39.6531 93.3869 39.7663C93.3557 39.8796 93.363 39.9999 93.4077 40.1086C93.4523 40.2174 93.5319 40.3085 93.6342 40.368L95.0783 41.2064L91.9768 49.9584C91.8766 50.2336 91.7862 50.5088 91.7054 50.7872C91.674 50.9 91.6061 50.9995 91.5122 51.0704C91.4182 51.1413 91.3033 51.1796 91.1852 51.1796C91.0671 51.1796 90.9523 51.1413 90.8583 51.0704C90.7643 50.9995 90.6965 50.9 90.6651 50.7872C90.594 50.5248 90.5197 50.2496 90.4357 49.9584L87.528 39.7632C87.4962 39.6508 87.4282 39.5518 87.3343 39.4813C87.2403 39.4108 87.1257 39.3727 87.0078 39.3728H82.0034C81.8848 39.3725 81.7695 39.4109 81.6752 39.482C81.5809 39.5531 81.5128 39.6531 81.4816 39.7663C81.4503 39.8796 81.4576 39.9999 81.5023 40.1086C81.5469 40.2174 81.6265 40.3085 81.7288 40.368L83.8482 41.6L89.04 56.9856L88.8591 57.0912C88.7571 57.1505 88.6776 57.2414 88.6329 57.3498C88.5881 57.4583 88.5806 57.5783 88.6114 57.6914C88.6423 57.8044 88.7098 57.9044 88.8036 57.9757C88.8973 58.0471 89.0122 58.086 89.1305 58.0864H92.4323C92.5146 58.0841 92.5952 58.0633 92.6681 58.0256H92.6908C92.806 57.9654 92.8946 57.8651 92.9395 57.744L96.6452 47.536C96.7389 47.2736 96.8294 47.008 96.9102 46.7424C96.9425 46.6309 97.0106 46.5329 97.1041 46.4631C97.1977 46.3934 97.3116 46.3556 97.4287 46.3556C97.5458 46.3556 97.6597 46.3934 97.7532 46.4631C97.8468 46.5329 97.9149 46.6309 97.9472 46.7424C98.028 47.008 98.1152 47.2736 98.2122 47.536L101.646 57.0048L101.485 57.1008C101.383 57.1603 101.303 57.2514 101.258 57.3602C101.214 57.4689 101.206 57.5892 101.238 57.7025C101.269 57.8158 101.337 57.9157 101.431 57.9868C101.526 58.0579 101.641 58.0963 101.76 58.096H105.055C105.135 58.0951 105.214 58.0754 105.284 58.0384L105.326 58.0192C105.44 57.9553 105.526 57.853 105.569 57.7312L111.523 40.0864C111.549 40.0065 111.555 39.9217 111.542 39.8389C111.529 39.7561 111.496 39.6775 111.446 39.6096C111.396 39.5417 111.331 39.4863 111.256 39.4479C111.181 39.4096 111.097 39.3893 111.012 39.3888Z" fill="#F6F6F6"/>
<path d="M114.757 38.5856C114.341 38.5839 113.933 38.6955 113.578 38.9083C113.222 39.1212 112.933 39.4269 112.741 39.792L112.667 39.9744C112.539 40.3604 112.521 40.774 112.616 41.1694C112.71 41.5647 112.914 41.9264 113.203 42.2144C113.505 42.5272 113.895 42.7427 114.323 42.833C114.75 42.9232 115.195 42.8839 115.6 42.7203C116.004 42.5567 116.35 42.2763 116.591 41.9156C116.833 41.5548 116.959 41.1304 116.954 40.6976C116.956 40.4174 116.899 40.1399 116.788 39.8822C116.677 39.6246 116.513 39.3924 116.308 39.2C116.105 38.9989 115.863 38.8407 115.596 38.7351C115.329 38.6295 115.044 38.5786 114.757 38.5856Z" fill="#F6F6F6"/>
<path d="M119.115 44.208H119.038C118.984 44.2196 118.933 44.2401 118.886 44.2688L118.831 44.304C118.782 44.3407 118.74 44.3863 118.708 44.4384L118.679 44.48C118.64 44.5542 118.617 44.6362 118.614 44.72V46.64C118.614 46.64 118.614 46.64 118.614 46.656V48C118.616 48.1168 118.656 48.2299 118.729 48.3222C118.801 48.4144 118.902 48.4807 119.016 48.5111C119.13 48.5415 119.251 48.5343 119.36 48.4905C119.47 48.4468 119.562 48.369 119.622 48.2688L120.269 47.1936H125.115C124.827 47.552 124.611 47.8336 124.469 48.0512L118.33 57.7024V58.1024H130.045C130.064 58.1039 130.084 58.1039 130.103 58.1024H130.122C130.202 58.092 130.277 58.0623 130.342 58.016C130.414 57.9687 130.474 57.9046 130.516 57.8293C130.557 57.754 130.58 57.6698 130.581 57.584V55.664C130.581 55.664 130.581 55.6448 130.581 55.632V54.32C130.579 54.2031 130.539 54.09 130.467 53.9978C130.394 53.9056 130.294 53.8393 130.18 53.8089C130.066 53.7785 129.945 53.7857 129.835 53.8294C129.726 53.8732 129.634 53.951 129.573 54.0512L128.927 55.1296H123.987C124.275 54.7584 124.446 54.5248 124.501 54.4352L130.707 44.624V44.224H119.157L119.115 44.208Z" fill="#F6F6F6"/>
<path d="M156.156 44.16C156.142 44.1302 156.122 44.1031 156.098 44.08C156.075 44.0456 156.048 44.0144 156.017 43.9872C155.986 43.964 155.952 43.9436 155.917 43.9264C155.883 43.9079 155.848 43.8939 155.81 43.8848C155.775 43.875 155.74 43.8686 155.704 43.8656C155.684 43.8656 155.668 43.8656 155.646 43.8656C154.826 43.8558 154.023 44.0923 153.342 44.544C152.584 45.1068 152.059 45.9253 151.869 46.8448V44.7328C151.87 44.7222 151.87 44.7114 151.869 44.7008C151.868 44.6635 151.86 44.6267 151.846 44.592C151.838 44.5529 151.823 44.5152 151.804 44.48C151.789 44.4499 151.769 44.4219 151.746 44.3968C151.717 44.3628 151.683 44.3327 151.646 44.3072C151.623 44.288 151.598 44.2709 151.572 44.256C151.5 44.2204 151.422 44.2008 151.342 44.1984H148.037C147.919 44.1988 147.804 44.2377 147.71 44.3091C147.616 44.3804 147.549 44.4804 147.518 44.5935C147.487 44.7065 147.495 44.8265 147.539 44.935C147.584 45.0434 147.664 45.1343 147.766 45.1936L148.334 45.5136V56.8128L147.869 57.0816C147.767 57.1411 147.687 57.2322 147.643 57.341C147.598 57.4497 147.591 57.57 147.622 57.6833C147.653 57.7966 147.721 57.8965 147.815 57.9676C147.91 58.0387 148.025 58.0771 148.144 58.0768H148.832C148.846 58.0786 148.86 58.0786 148.874 58.0768H151.439C151.529 58.0751 151.617 58.0509 151.694 58.0064C151.76 57.9686 151.818 57.9173 151.862 57.856L151.888 57.8208C151.918 57.7698 151.939 57.7148 151.953 57.6576C151.96 57.6334 151.965 57.6088 151.969 57.584C151.969 57.584 151.969 57.5584 151.969 57.5456V50.992C151.943 50.4919 152.023 49.9919 152.205 49.5245C152.386 49.057 152.665 48.6325 153.022 48.2784C153.527 47.7971 154.164 47.4753 154.854 47.3536L155.2 47.9392C155.26 48.0404 155.352 48.1193 155.462 48.1635C155.571 48.2078 155.693 48.215 155.807 48.1841C155.922 48.1531 156.022 48.0857 156.094 47.9923C156.166 47.8989 156.205 47.7846 156.204 47.6672V44.4064C156.209 44.3216 156.192 44.2371 156.156 44.16Z" fill="#F6F6F6"/>
<path d="M116.566 44.6112C116.555 44.5619 116.536 44.5145 116.511 44.4704C116.498 44.4478 116.483 44.4264 116.466 44.4064C116.433 44.3655 116.394 44.3299 116.35 44.3008C116.327 44.3008 116.311 44.272 116.285 44.2592C116.213 44.2222 116.133 44.2025 116.052 44.2016H112.754C112.635 44.2013 112.52 44.2397 112.426 44.3108C112.331 44.3819 112.263 44.4818 112.232 44.5951C112.201 44.7084 112.208 44.8287 112.253 44.9374C112.297 45.0462 112.377 45.1373 112.479 45.1968L112.944 45.4656V56.8384L112.479 57.1072C112.377 57.1667 112.297 57.2578 112.253 57.3666C112.208 57.4753 112.201 57.5956 112.232 57.7089C112.263 57.8222 112.331 57.9221 112.426 57.9932C112.52 58.0643 112.635 58.1027 112.754 58.1024H116.049C116.13 58.1015 116.21 58.0818 116.282 58.0448C116.308 58.0448 116.324 58.016 116.346 58.0032C116.39 57.9741 116.43 57.9384 116.463 57.8976C116.48 57.8776 116.495 57.8562 116.508 57.8336C116.533 57.7895 116.551 57.7421 116.563 57.6928C116.571 57.6657 116.577 57.6378 116.579 57.6096C116.581 57.5958 116.581 57.5818 116.579 57.568V44.736C116.581 44.7222 116.581 44.7082 116.579 44.6944C116.578 44.6663 116.574 44.6384 116.566 44.6112Z" fill="#F6F6F6"/>
<path d="M146.477 57.1072L145.905 56.7872V45.4624L146.364 45.1968C146.466 45.1373 146.545 45.0462 146.59 44.9374C146.635 44.8287 146.642 44.7084 146.611 44.5951C146.58 44.4818 146.511 44.3819 146.417 44.3108C146.323 44.2397 146.207 44.2013 146.089 44.2016H142.8C142.756 44.2069 142.712 44.2177 142.671 44.2336H142.619C142.553 44.2562 142.492 44.2916 142.44 44.3377C142.388 44.3839 142.345 44.4399 142.315 44.5025C142.285 44.565 142.268 44.6329 142.265 44.7021C142.261 44.7713 142.272 44.8405 142.296 44.9056V45.2448C142.306 45.318 142.291 45.3925 142.252 45.4557C142.213 45.5189 142.154 45.5668 142.083 45.5913C142.013 45.6158 141.936 45.6154 141.866 45.5901C141.796 45.5649 141.736 45.5164 141.698 45.4528C141.399 45.0897 141.039 44.7792 140.635 44.5344C139.78 44.0734 138.814 43.8521 137.841 43.8944C136.608 43.8869 135.399 44.2301 134.358 44.8832C133.3 45.5397 132.431 46.4557 131.835 47.5424C131.21 48.6616 130.888 49.9213 130.898 51.2C130.881 52.472 131.197 53.7267 131.815 54.8416C132.412 55.9209 133.282 56.8284 134.339 57.4752C135.385 58.1146 136.592 58.4475 137.821 58.4352C138.817 58.4845 139.805 58.2478 140.668 57.7536C141.083 57.4869 141.451 57.1538 141.756 56.768C141.794 56.7034 141.852 56.6536 141.922 56.6271C141.993 56.6007 142.07 56.5993 142.141 56.6231C142.212 56.647 142.273 56.6946 142.312 56.7578C142.352 56.8211 142.368 56.8959 142.357 56.9696V57.552C142.357 57.552 142.357 57.5808 142.357 57.5936C142.361 57.6216 142.367 57.6494 142.374 57.6768C142.386 57.7262 142.406 57.7736 142.432 57.8176C142.444 57.8401 142.458 57.8615 142.474 57.8816C142.508 57.9226 142.548 57.9582 142.593 57.9872L142.655 58.0288C142.728 58.0662 142.808 58.0859 142.89 58.0864H146.186C146.301 58.0847 146.413 58.0465 146.504 57.9775C146.596 57.9085 146.663 57.8123 146.695 57.7029C146.728 57.5935 146.724 57.4766 146.685 57.3695C146.645 57.2623 146.572 57.1704 146.477 57.1072ZM141.882 53.2096C141.565 53.8101 141.084 54.3102 140.493 54.6528C139.868 55.0157 139.153 55.2006 138.429 55.1872C137.719 55.2016 137.019 55.0115 136.416 54.64C135.835 54.279 135.36 53.7723 135.04 53.1712C134.708 52.5583 134.537 51.8729 134.542 51.1776C134.534 50.4805 134.701 49.7922 135.027 49.1744C135.35 48.5602 135.839 48.0472 136.44 47.6928C137.041 47.3384 137.73 47.1567 138.429 47.168C139.155 47.1552 139.87 47.3448 140.493 47.7152C141.084 48.0705 141.564 48.5797 141.882 49.1872C142.209 49.8108 142.376 50.504 142.37 51.2064C142.377 51.9038 142.21 52.592 141.882 53.2096Z" fill="#F6F6F6"/>
<path d="M172.064 57.1072L171.492 56.7872V39.12C171.494 39.1062 171.494 39.0922 171.492 39.0784C171.496 39.0518 171.496 39.025 171.492 38.9984C171.482 38.949 171.463 38.9015 171.438 38.8576C171.424 38.834 171.409 38.8115 171.392 38.7904C171.36 38.7498 171.321 38.7151 171.276 38.688C171.257 38.672 171.237 38.658 171.215 38.6464C171.142 38.6087 171.061 38.5879 170.979 38.5856H167.683C167.565 38.5867 167.45 38.6259 167.357 38.6975C167.263 38.769 167.196 38.8689 167.165 38.9819C167.134 39.0949 167.141 39.2148 167.185 39.3235C167.229 39.4322 167.307 39.5237 167.409 39.584L167.874 39.8528V44.7104C167.874 44.8158 167.843 44.9188 167.784 45.0064C167.724 45.094 167.64 45.1622 167.542 45.2023C167.444 45.2425 167.335 45.2527 167.231 45.2318C167.127 45.2109 167.031 45.1597 166.956 45.0848C166.734 44.8775 166.49 44.6931 166.23 44.5344C165.377 44.0772 164.416 43.8561 163.448 43.8944C162.215 43.8869 161.006 44.2301 159.965 44.8832C158.907 45.5397 158.038 46.4557 157.442 47.5424C156.811 48.6598 156.481 49.9196 156.486 51.2C156.474 52.471 156.794 53.7234 157.416 54.8352C158.013 55.9145 158.882 56.822 159.939 57.4688C160.985 58.1082 162.193 58.4411 163.422 58.4288C164.417 58.4781 165.406 58.2414 166.268 57.7472C166.684 57.4805 167.052 57.1474 167.357 56.7616C167.394 56.697 167.453 56.6472 167.523 56.6207C167.593 56.5943 167.67 56.5929 167.742 56.6167C167.813 56.6406 167.873 56.6882 167.913 56.7514C167.952 56.8147 167.968 56.8895 167.958 56.9632V57.5456C167.958 57.5456 167.958 57.5744 167.958 57.5872C167.962 57.6152 167.967 57.643 167.974 57.6704C167.987 57.7198 168.006 57.7672 168.032 57.8112C168.044 57.8337 168.058 57.8551 168.074 57.8752C168.109 57.9162 168.149 57.9518 168.194 57.9808L168.255 58.0224C168.328 58.0598 168.409 58.0795 168.491 58.08H171.786C171.899 58.0739 172.006 58.0332 172.094 57.9636C172.182 57.894 172.245 57.799 172.276 57.6919C172.307 57.5847 172.303 57.4708 172.265 57.3659C172.227 57.2611 172.157 57.1706 172.064 57.1072ZM167.47 53.2096C167.153 53.8101 166.671 54.3102 166.081 54.6528C165.456 55.0157 164.741 55.2006 164.016 55.1872C163.307 55.2019 162.609 55.0118 162.007 54.64C161.424 54.2801 160.948 53.7732 160.627 53.1712C160.296 52.5583 160.125 51.8729 160.13 51.1776C160.122 50.4805 160.288 49.7922 160.614 49.1744C160.938 48.5602 161.427 48.0472 162.028 47.6928C162.629 47.3384 163.317 47.1567 164.016 47.168C164.743 47.1552 165.458 47.3448 166.081 47.7152C166.671 48.0705 167.152 48.5797 167.47 49.1872C167.798 49.8102 167.966 50.5038 167.958 51.2064C167.966 51.904 167.799 52.5926 167.47 53.2096Z" fill="#F6F6F6"/>
<path d="M188.961 57.1072L188.389 56.7872V39.12C188.391 39.1062 188.391 39.0922 188.389 39.0784C188.387 39.0512 188.382 39.0243 188.373 38.9984C188.362 38.949 188.344 38.9015 188.318 38.8576C188.305 38.834 188.29 38.8115 188.273 38.7904C188.241 38.7498 188.201 38.7151 188.157 38.688C188.138 38.672 188.117 38.658 188.095 38.6464C188.022 38.6087 187.942 38.5879 187.86 38.5856H184.564C184.446 38.5867 184.331 38.6259 184.238 38.6975C184.144 38.769 184.076 38.8689 184.045 38.9819C184.014 39.0949 184.021 39.2148 184.065 39.3235C184.109 39.4322 184.188 39.5237 184.29 39.584L184.755 39.8528V44.7104C184.754 44.8157 184.722 44.9185 184.662 45.0058C184.603 45.0931 184.519 45.161 184.42 45.201C184.322 45.241 184.214 45.2513 184.109 45.2307C184.005 45.21 183.909 45.1592 183.834 45.0848C183.613 44.8767 183.37 44.6922 183.11 44.5344C182.258 44.0772 181.297 43.8561 180.329 43.8944C179.096 43.8869 177.887 44.2301 176.846 44.8832C175.787 45.5388 174.918 46.455 174.323 47.5424C173.697 48.6613 173.373 49.921 173.382 51.2C173.371 52.471 173.691 53.7234 174.313 54.8352C174.909 55.9152 175.778 56.8229 176.836 57.4688C177.882 58.1082 179.09 58.4411 180.319 58.4288C181.314 58.4781 182.303 58.2414 183.165 57.7472C183.581 57.4805 183.949 57.1474 184.254 56.7616C184.291 56.697 184.35 56.6472 184.42 56.6207C184.49 56.5943 184.567 56.5929 184.638 56.6167C184.71 56.6406 184.77 56.6882 184.81 56.7514C184.849 56.8147 184.865 56.8895 184.855 56.9632V57.5456C184.855 57.5456 184.855 57.5744 184.855 57.5872C184.853 57.6149 184.853 57.6427 184.855 57.6704C184.868 57.7198 184.887 57.7672 184.913 57.8112C184.925 57.8337 184.939 57.8551 184.955 57.8752C184.989 57.9162 185.03 57.9518 185.075 57.9808L185.136 58.0224C185.209 58.0598 185.29 58.0795 185.372 58.08H188.677C188.79 58.0751 188.898 58.0353 188.987 57.9662C189.076 57.8971 189.14 57.8021 189.172 57.6947C189.203 57.5873 189.2 57.4728 189.162 57.3674C189.124 57.262 189.054 57.171 188.961 57.1072ZM184.367 53.2096C184.05 53.8101 183.568 54.3102 182.978 54.6528C182.352 55.0157 181.638 55.2006 180.913 55.1872C180.203 55.2016 179.504 55.0115 178.901 54.64C178.319 54.279 177.845 53.7723 177.524 53.1712C177.193 52.5583 177.022 51.8729 177.027 51.1776C177.019 50.4805 177.185 49.7922 177.511 49.1744C177.835 48.5587 178.326 48.0447 178.929 47.6903C179.532 47.3358 180.222 47.1549 180.923 47.168C181.649 47.1552 182.365 47.3448 182.988 47.7152C183.578 48.0705 184.059 48.5797 184.377 49.1872C184.703 49.8108 184.871 50.504 184.865 51.2064C184.869 51.9046 184.698 52.5929 184.367 53.2096Z" fill="#F6F6F6"/>
<path d="M53.5177 51.9904C52.4612 52.0736 51.5598 52.1728 50.7942 52.2272L50.778 52.192L59.0843 50.416C59.1293 50.4067 59.1689 50.3805 59.1948 50.3429C59.2207 50.3053 59.2309 50.2593 59.2232 50.2144L55.8471 30.88C55.8417 30.8519 55.8295 30.8255 55.8117 30.803C55.7939 30.7805 55.7709 30.7626 55.7447 30.7507C55.7184 30.7388 55.6897 30.7333 55.6609 30.7346C55.632 30.7359 55.6039 30.7441 55.5789 30.7584L52.8328 32.3904C52.7969 32.4144 52.7535 32.4246 52.7106 32.4191C52.6677 32.4137 52.6283 32.3929 52.5998 32.3607C52.5712 32.3285 52.5555 32.2871 52.5556 32.2443C52.5557 32.2014 52.5715 32.1601 52.6002 32.128L58.3477 24.9088C58.3938 24.8497 58.4612 24.8104 58.5357 24.7991C58.6103 24.7878 58.6864 24.8053 58.7483 24.848C59.4235 25.3152 61.488 26.6592 63.5266 27.088C63.5725 27.0973 63.6199 27.0958 63.6651 27.0836C63.7102 27.0713 63.7518 27.0487 63.7864 27.0175C63.8211 26.9863 63.8478 26.9474 63.8644 26.9041C63.881 26.8607 63.887 26.8141 63.882 26.768C63.7625 23.6768 58.5157 19.5616 57.0295 18.448C56.9199 18.3672 56.7855 18.3263 56.649 18.3321C56.5125 18.3379 56.3822 18.3902 56.28 18.48L41.5574 31.328C41.4629 31.4128 41.3974 31.5246 41.37 31.648L38.5108 44.0672C38.5039 44.0971 38.5051 44.1282 38.5141 44.1575C38.5231 44.1868 38.5397 44.2133 38.5622 44.2343C38.5847 44.2553 38.6124 44.2701 38.6425 44.2773C38.6725 44.2845 38.704 44.2838 38.7337 44.2752L45.5183 42.4224C45.5589 42.4142 45.601 42.4202 45.6376 42.4395C45.6741 42.4588 45.7027 42.4901 45.7184 42.5281C45.7341 42.566 45.7359 42.6082 45.7236 42.6473C45.7112 42.6864 45.6855 42.7201 45.6508 42.7424L38.2523 46.7808C38.1744 46.8228 38.1072 46.8818 38.0557 46.9533C38.0042 47.0248 37.9698 47.107 37.9551 47.1936L37.0698 52.1056C37.0685 52.1143 37.0652 52.1225 37.0602 52.1297C37.0551 52.1369 37.0485 52.1429 37.0408 52.1472C35.0377 53.2 28.6698 57.4592 21.0678 57.7696C21.003 57.7716 20.9407 57.7953 20.8911 57.8369C20.8415 57.8784 20.8076 57.9353 20.7949 57.9984C20.7821 58.0615 20.7913 58.1269 20.821 58.1842C20.8506 58.2414 20.8989 58.287 20.958 58.3136C24.4602 59.8816 34.6985 63.2768 47.7475 60.7392C62.5671 58.1792 71.2579 58.0992 73.2092 58.1184C73.261 58.1262 73.314 58.1191 73.3618 58.0977C73.4096 58.0764 73.4501 58.0418 73.4785 57.9981C73.5068 57.9545 73.5218 57.9036 73.5216 57.8517C73.5214 57.7998 73.5061 57.749 73.4774 57.7056C72.7537 56.0832 69.1385 50.4352 53.5177 51.9904Z" fill="#F6F6F6"/>
</svg>
